<!-- Generated by IcoMoon.io -->
<svg version="1.1" xmlns="http://www.w3.org/2000/svg" width="216" height="32" viewBox="0 0 216 32">
<title>Abilities4</title>
<path d="M89.916 25.906h2.926l1.301-0.991 1.625 1.651 3.251-1.651v-4.293l-4.877-5.283 3.576 1.981h1.301v-3.962l-2.601-2.642 2.601-1.981v-3.302l-2.601 0.66-2.276 1.651-1.301-1.651h-2.926v19.811zM67.809 26.236h3.251v-1.651l3.251 1.651h2.276v-20.141h-8.778v20.141zM78.862 26.236h2.276l0.975-1.651 1.301 1.651h4.226v-20.141h-3.251l-0.976 4.623-1.301-4.623h-3.251v20.141zM56.755 6.425h8.778v19.811h-2.276l-1.3-1.651-1.301 1.651h-3.902v-1.981c1.561-1.056 0.65-2.421 0-2.972v-10.566l4.877 1.651-4.877-5.943z"></path>
<path d="M142.628 1.301c0-0.718-0.583-1.301-1.303-1.301s-1.303 0.582-1.303 1.301c0 0.718 0.583 1.301 1.303 1.301s1.303-0.582 1.303-1.301zM146.276 6.244c0-0.862-0.7-1.561-1.564-1.561s-1.564 0.699-1.564 1.561c0 0.862 0.7 1.561 1.564 1.561s1.564-0.699 1.564-1.561zM138.457 7.284c-0.575 0-1.042-0.466-1.042-1.041s0.467-1.041 1.042-1.041c0.576 0 1.043 0.466 1.043 1.041s-0.467 1.041-1.043 1.041zM148.185 10.586l9.296-7.464c0.347 1.041-0.156 4.267-1.824 5.724-0.778 0.679-1.491 1.29-2.119 1.829l-0.001 0.001c-0.719 0.616-1.326 1.136-1.789 1.552v1.821l4.691-3.902-0.013 0.093c-0.178 1.34-0.545 4.1-2.072 5.37-1.251 1.041-2.259 1.821-2.606 2.081v2.081l3.388-2.862c0.173 1.734-1.2 5.18-3.024 6.504-1.155 0.839-3.112 2.483-5.126 4.174-1.983 1.666-4.022 3.378-5.401 4.411-1.38-1.033-3.418-2.745-5.401-4.411-2.014-1.691-3.971-3.335-5.126-4.174-1.824-1.324-3.197-4.77-3.024-6.504l3.388 2.862v-2.081c-0.077-0.057-0.188-0.137-0.328-0.237-0.496-0.355-1.357-0.97-2.332-1.782-1.564-1.301-2.275-4.225-2.449-5.526l5.109 3.902v-1.821c-0.463-0.416-1.071-0.937-1.789-1.553-0.628-0.538-1.342-1.15-2.12-1.83-1.668-1.457-2.171-4.683-1.824-5.724l9.295 7.464c-1.048 1.383-1.669 3.107-1.669 4.975 0 4.56 3.702 8.256 8.27 8.256s8.27-3.697 8.27-8.256c0-1.868-0.621-3.591-1.669-4.975zM141.585 21.854c-3.454 0-6.255-2.795-6.255-6.244s2.8-6.244 6.255-6.244c3.454 0 6.254 2.795 6.254 6.244s-2.8 6.244-6.254 6.244z"></path>
<path d="M186.431 16.238c-3.065-3.187-3.036-8.227 0.066-11.378 3.21-3.26 8.476-3.26 11.685 0l1.666 1.693 1.666-1.693c3.21-3.26 8.476-3.26 11.685 0 3.102 3.151 3.132 8.191 0.066 11.378l-13.418 13.951-13.418-13.951zM206.492 14.755c-1.85-0.091-3.419-0.806-4.705-2.145s-1.93-2.935-1.93-4.79c0 1.855-0.646 3.451-1.938 4.79s-2.863 2.053-4.712 2.145c1.218 0.055 2.335 0.4 3.352 1.035s1.82 1.475 2.411 2.522c0.59 1.046 0.886 2.181 0.886 3.405 0-1.864 0.643-3.467 1.93-4.81s2.855-2.060 4.705-2.152z"></path>
<path d="M27.793 16.302c0-6.733-5.685-12.19-12.698-12.19s-12.698 5.458-12.698 12.19c0 6.733 5.685 12.191 12.698 12.191s12.698-5.458 12.698-12.191zM30.189 16.302c0 8.003-6.758 14.491-15.094 14.491s-15.094-6.488-15.094-14.491c0-8.003 6.758-14.491 15.094-14.491s15.094 6.488 15.094 14.491zM13.178 9.172l0.958 4.6 1.198-4.6-0.719-1.15v-2.067c0.080-0.002 0.16-0.003 0.24-0.003 2.851 0 5.437 1.086 7.334 2.851l-1.105 3.819 2.153-2.688c1.355 1.703 2.159 3.83 2.159 6.138 0 1.726-0.45 3.352-1.244 4.774l-2.59-1.554v-2.99l-4.313-5.52 2.636 5.75-0.24 2.99-5.271 1.61 5.75 0.69 1.542 1.973c-1.837 1.495-4.215 2.397-6.813 2.397-2.093 0-4.043-0.585-5.683-1.595l1.37-3.006-2.635 2.070 0.025 0.042c-0.66-0.552-1.248-1.183-1.748-1.876l4.598-4.607 0.719-5.52-3.354 5.52-3.657 0.702c-0.116-0.6-0.176-1.22-0.176-1.852 0-1.344 0.273-2.626 0.768-3.799l2.107 0.809-1.253-2.406c1.101-1.673 2.698-3.016 4.594-3.836l2.649 2.331z"></path>
</svg>
