<!-- Generated by IcoMoon.io -->
<svg version="1.1" xmlns="http://www.w3.org/2000/svg" width="192" height="32" viewBox="0 0 192 32">
<title>Abilities2</title>
<path fill="#f8f8f8" d="M177.627 0l0.133 0.315c1.366 3.317 2.305 8.322 2.818 15.015l0.047 0.632-2.139 2.661v1.139c0.527 0 2.139 1.104 2.139 2.805 0 1.627-1.064 2.435-1.451 2.503l-0.048 0.005v5.636c0 0.431-0.436 0.676-1.306 0.736l-0.193 0.010c-1-0.036-1.499-0.285-1.499-0.747v-5.636c-0.336 0-1.499-0.806-1.499-2.507s1.612-2.805 2.139-2.805v-1.139l-2.139-2.661c0.517-7.229 1.516-12.55 2.998-15.963zM163.266 4.863l0.218 0.209c2.037 1.998 4.248 5.339 6.633 10.024l0.257 0.507-0.854 2.601 0.342 0.832c0.407-0.162 1.983 0.149 2.494 1.392s-0.146 2.189-0.406 2.292c1.186 2.887 1.848 4.499 1.986 4.836 0.129 0.313-0.131 0.624-0.778 0.934l-0.156 0.071c-0.783 0.28-1.244 0.252-1.382-0.085l-1.986-4.836c-0.26 0.103-1.4-0.129-1.911-1.371s0.405-2.544 0.811-2.706l-0.342-0.832-2.452-1.287c-1.769-5.44-2.594-9.634-2.473-12.582zM191.989 4.863c0.12 2.948-0.703 7.142-2.473 12.582l-2.452 1.287-0.342 0.832c0.407 0.162 1.322 1.463 0.811 2.706s-1.651 1.474-1.911 1.371l-1.986 4.836c-0.138 0.337-0.599 0.365-1.382 0.085l-0.156-0.071c-0.648-0.31-0.907-0.621-0.778-0.934 0.138-0.337 0.801-1.949 1.986-4.836-0.26-0.103-0.916-1.049-0.406-2.292s2.087-1.554 2.494-1.392l0.342-0.832-0.854-2.601 0.256-0.507c2.385-4.685 4.596-8.026 6.633-10.024l0.218-0.209zM177.627 21.136c-0.828 0-1.499 0.66-1.499 1.475s0.671 1.475 1.499 1.475c0.828 0 1.499-0.66 1.499-1.475s-0.671-1.475-1.499-1.475zM169.608 20.303c-0.639 0.254-0.96 0.943-0.716 1.538s0.961 0.871 1.601 0.617c0.639-0.254 0.96-0.943 0.715-1.538s-0.961-0.871-1.601-0.617zM185.647 20.303c-0.639-0.254-1.356 0.022-1.601 0.617s0.076 1.283 0.715 1.538c0.64 0.254 1.356-0.022 1.601-0.617s-0.076-1.283-0.716-1.538z"></path>
<path fill="#f8f8f8" d="M123.265 9.898c-0.607 2.325-2.126 3.487-4.554 3.487h-14.575c0.607-1.743 1.518-2.615 2.732-2.615h10.931c-1.214-1.162-2.429-1.743-3.644-1.743h-4.554c0.58-1.109 1.713-1.689 3.399-1.74l0.593-0.008c2.61-0.072 5.078-0.978 4.206-3.482h4.555l12.95 11.566c0.368 0.329 0.388 0.88 0.044 1.232-0.014 0.015-0.029 0.029-0.044 0.043l-12.95 11.566h-4.555c0.911-2.615-1.822-3.487-4.554-3.487-1.739 0-2.925-0.529-3.557-1.588l-0.087-0.155h4.554c1.143 0 2.286-0.515 3.429-1.544l0.214-0.199h-10.931c-1.161 0-2.045-0.797-2.652-2.393l-0.081-0.222h14.575c2.348 0 3.845 1.086 4.491 3.258l0.063 0.229 6.377-6.102-6.377-6.102z"></path>
<path fill="#f8f8f8" d="M65.374 22.966c-0.328-0.261-0.793-0.261-1.121 0l-3.588 2.86c-0.213 0.17-0.336 0.426-0.336 0.698v4.934l4.485-3.576 4.485 3.576v-4.934c0-0.272-0.124-0.528-0.336-0.698l-3.588-2.86zM65.413 12.331c-0.341-0.306-0.859-0.306-1.2 0l-8.073 7.24c-0.189 0.169-0.297 0.411-0.297 0.664v4.965l8.37-7.507c0.341-0.306 0.859-0.306 1.2 0l8.37 7.507v-4.965c0-0.253-0.107-0.495-0.297-0.664l-8.073-7.24zM65.448 0.804c-0.35-0.349-0.918-0.349-1.268 0l-10.502 10.465c-0.336 0.335-0.525 0.79-0.525 1.264v6.41l3.588-2.682v-2.311c0-0.237 0.095-0.464 0.263-0.632l7.176-7.151c0.35-0.349 0.918-0.349 1.268 0l7.176 7.151c0.168 0.168 0.263 0.395 0.263 0.632v2.311l3.588 2.682v-6.41c0-0.474-0.189-0.929-0.526-1.264l-10.501-10.465z"></path>
<path fill="#f8f8f8" d="M13.298 0c0 1.355 0.016 2.397-0.638 3.643l0.087-0.001c7.039 0 12.746 5.76 12.746 12.866 0 4.261-2.052 8.038-5.213 10.379-1.034 1.004-3.402 2.709-7.107 5.114 0.233-1.014 0.108-1.89-0.374-2.628l-0.052 0.001c-7.039 0-12.746-5.76-12.746-12.866 0-4.978 2.801-9.296 6.899-11.435 3.324-2.322 5.457-4.013 6.398-5.072zM12.746 9.19c-4.022 0-7.283 3.291-7.283 7.352 0 0.765 0.116 1.502 0.33 2.196 2.18 1.566 6.419 0.636 6.831-4.033 0.96 3.751 0.29 7.505-4.336 7.652 1.232 0.964 2.778 1.538 4.458 1.538 4.022 0 7.283-3.292 7.283-7.352s-3.261-7.352-7.283-7.352z"></path>
</svg>
