<!-- Generated by IcoMoon.io -->
<svg version="1.1" xmlns="http://www.w3.org/2000/svg" width="158" height="32" viewBox="0 0 158 32">
<title>Abilities1</title>
<path fill="#f8f8f8" d="M21.7 0l-4.391 8.672c1.431 1.354 2.322 3.268 2.322 5.389 0 0.46-0.042 0.911-0.122 1.348l4.047 3.257-4.816-1.079c-1.084 2-3.062 3.448-5.4 3.815l-1.169 10.598-0.964-10.569c-0.697-0.090-1.363-0.275-1.986-0.542l-2.7 1.812 1.179-2.69c-1.74-1.299-2.892-3.338-2.985-5.649l-4.716-1.829 4.998-0.526c0.301-1.047 0.827-1.999 1.523-2.801l0-1.862 2.232 0.108c0.621-0.319 1.292-0.554 1.999-0.69h-0.074l1.146-6.080 1.129 5.986c0.868 0.090 1.692 0.329 2.445 0.689l6.302-7.358zM12.171 10.592c-1.923 0-3.482 1.553-3.482 3.468s1.559 3.468 3.482 3.468c1.923 0 3.482-1.553 3.482-3.468s-1.559-3.468-3.482-3.468z"></path>
<path fill="#f8f8f8" d="M51.092 1.778c-1.011 3.758-2.364 10.851 1.046 12.284 2.274 0.955 2.72-1.659 1.34-7.843 2.265 3.254 3.24 6.393 2.922 9.416 0.421 0.241 0.819 0.52 1.188 0.832 0.544-0.328 0.815-0.956 0.815-1.883 0.588 1.079 0.733 2.147 0.433 3.205 1.009 1.345 1.608 3.021 1.608 4.836 0 4.441-3.582 8.041-8 8.041s-8-3.6-8-8.041c0-1.28 0.297-2.49 0.827-3.564-0.52-1.212-0.382-2.879 0.415-5 0 1.91 0.359 2.369 0.784 2.639 0.12 0.076 0.262 0.12 0.428 0.132 0.24-0.234 0.495-0.451 0.763-0.653-0.42-5.539 0.724-10.341 3.432-14.402zM52.444 18.817c-2.093 0-3.789 1.705-3.789 3.809 0 1.638 1.028 3.035 2.472 3.573 0.139-1.317 0.684-2.223 1.636-2.717 0 1.056-0.137 2.13 0.581 2.845 1.659-0.407 2.889-1.909 2.889-3.7 0-2.104-1.696-3.809-3.789-3.809z"></path>
<path fill="#f8f8f8" d="M87.751 4.902c-2.485 2.247-3.581 5.423-3.288 9.528-0.953-0.391-1.86-1.508-2.72-3.353-0.904 1.705-0.975 8.298 7.036 13.555 0 0-0.693 0.444-2.080 1.331 2.27 0.882 5.308 1.413 9.116 1.593-7.902-6.891-9.169-16.211-8.064-22.653zM105.583 4.889c1.105 6.443-0.162 15.762-8.064 22.653 3.807-0.179 6.846-0.71 9.116-1.593-1.386-0.887-2.080-1.331-2.080-1.331 8.012-5.256 7.94-11.849 7.036-13.555-0.86 1.845-1.767 2.963-2.72 3.353 0.293-4.105-0.804-7.281-3.288-9.528zM101.733 16.027c-0.388-2.127-3.839-2.868-5.002-0.16l-0.064 0.159 0.001 0.001c-1.093-2.896-4.671-2.168-5.066 0s1.819 4.554 5.065 6.481h0.001v-0.001c3.247-1.927 5.461-4.313 5.065-6.481zM96.667 9.084c-0.941 0-1.704 0.751-1.704 1.678s0.763 1.678 1.704 1.678 1.704-0.751 1.704-1.678c0-0.927-0.763-1.678-1.704-1.678z"></path>
<path fill="#f8f8f8" d="M149.673 6.667c1.479 1.087 3.045 3.748 3.045 5.711l0 12.080c2.13 0.316 4.005 0.768 5.504 1.319l-0.001-10.903-0.001-0.208c-0.018-1.824-0.28-2.326-1.186-3.092 0.176 1.286 0.017 2.209-0.477 2.767-0.148-1.783-2.61-6.997-6.884-7.675zM132.889 11.46l-0 14.312c1.49-0.546 3.348-0.994 5.458-1.309l0-3.718c-1.033-0.868-2.853-3.963-5.458-9.285zM146.017 6.84c-1.408 1.56-2.17 2.974-2.285 4.24-0.173 1.899-0.174 4.403-1.694 4.403s-1.023-4.042-1.844-5.585c-0.548-1.029-1.398-1.727-2.549-2.095 0.944 1.060 1.728 2.428 1.728 4.405l-0 12.116c1.769-0.219 3.69-0.347 5.7-0.364l-0-10.353 0.006-0.534c0.045-2.132 0.358-4.209 0.94-6.232zM147.421 9.921c-0.782 0.814-1.174 2.024-1.174 3.63v10.41c1.743 0.022 3.416 0.128 4.978 0.303v-10.33c0-1.016-0.585-2.218-1.754-3.608 0.383 2.718 0.131 4.077-0.755 4.077s-1.318-1.494-1.295-4.483zM134.97 8.074c0.904 2.73 1.26 5.063 1.067 7.001l1.766-3.615-0.028-0.164c-0.236-1.197-1.171-2.271-2.806-3.222z"></path>
</svg>
