<!-- Generated by IcoMoon.io -->
<svg version="1.1" xmlns="http://www.w3.org/2000/svg" width="196" height="32" viewBox="0 0 196 32">
<title>Abilities3</title>
<path fill="#f8f8f8" d="M0 13.177l8.414 16.941 1.87-3.765 5.609 5.647-5.609-13.177-1.87 3.765-8.414-9.412zM33.655 13.177l-8.414 9.412-1.87-3.765-5.609 13.176 5.609-5.647 1.87 3.765 8.414-16.941zM16.828 0l-0.070 0.415c-1.257 7.264-3.415 11.205-6.474 11.821l6.544 13.176 6.544-13.176c-3.116-0.627-5.298-4.706-6.544-12.235z"></path>
<path fill="#f8f8f8" d="M85.502 9.931c3.36 0 6.084 2.708 6.084 6.050s-2.724 6.049-6.084 6.049c-3.014 0-5.517-2.18-5.999-5.040l-1.098-0.001v0.591c0 0.267-0.106 0.524-0.297 0.713l-4.056 4.033c-0.396 0.394-1.038 0.394-1.434 0l-4.056-4.033c-0.19-0.189-0.297-0.446-0.297-0.713v-0.591l-2.113 0.001c-0.483 2.861-2.985 5.040-5.999 5.040-3.36 0-6.084-2.708-6.084-6.050s2.724-6.050 6.084-6.050c3.015 0 5.517 2.18 6 5.041l2.112-0v-3.952c0-0.557 0.454-1.008 1.014-1.008 0.23 0 0.454 0.078 0.633 0.221l2.789 2.219c0.37 0.295 0.897 0.295 1.267 0l2.789-2.219c0.438-0.348 1.075-0.277 1.425 0.158 0.144 0.179 0.222 0.401 0.222 0.63v3.952l1.098 0c0.483-2.861 2.985-5.041 6-5.041zM60.153 12.956c-1.68 0-3.042 1.354-3.042 3.025s1.362 3.025 3.042 3.025c1.324 0 2.451-0.841 2.868-2.016l-2.868-0.001c-0.56 0-1.014-0.451-1.014-1.008s0.454-1.008 1.014-1.008l2.869 0c-0.418-1.175-1.544-2.017-2.869-2.017zM85.502 12.956c-1.325 0-2.451 0.842-2.869 2.017l2.869-0c0.56 0 1.014 0.452 1.014 1.008s-0.454 1.008-1.014 1.008l-2.868 0.001c0.418 1.174 1.544 2.016 2.868 2.016 1.68 0 3.042-1.354 3.042-3.025s-1.362-3.025-3.042-3.025z"></path>
<path fill="#f8f8f8" d="M142.345 27.241h-27.586v3.655h27.586v-3.655zM126.99 5.404c-6.374 0.766-11.311 6.16-11.311 12.7 0 2.718 0.853 5.239 2.308 7.311l3.624-0c-1.954-1.833-3.173-4.43-3.173-7.311 0-4.393 2.836-8.128 6.788-9.495l1.765-3.204zM130.115 5.404l1.766 3.205c3.951 1.368 6.786 5.102 6.786 9.495 0 2.881-1.219 5.478-3.173 7.311l3.624 0c1.455-2.072 2.308-4.593 2.308-7.311 0-6.54-4.938-11.933-11.31-12.7zM128.552 1.655c-9.142 0-16.552 7.364-16.552 16.448 0 2.626 0.62 5.108 1.721 7.311l2.087 0c-1.252-2.151-1.969-4.648-1.969-7.311 0-8.075 6.587-14.621 14.713-14.621s14.713 6.546 14.713 14.621c0 2.663-0.717 5.16-1.969 7.311l2.087-0c1.101-2.202 1.721-4.685 1.721-7.311 0-9.084-7.41-16.448-16.552-16.448zM128.552 5.31l-5.517 10.966c1.839-0.609 3.065-0.609 3.678 0s1.226 3.046 1.839 7.31c0.613-4.264 1.226-6.701 1.839-7.31s1.839-0.609 3.678 0l-5.517-10.966z"></path>
<path fill="#f8f8f8" d="M171.374 21.333l-1.321 0.776c2.642 4.892 5.726 5.781 8.369 6.226l0.881 3.113v-4.447c-2.936 0-5.579-1.889-7.928-5.668zM190.005 21.333c-2.349 3.778-4.991 5.668-7.928 5.668v4.447l0.881-3.113c2.643-0.445 5.726-1.334 8.369-6.226l-1.321-0.776zM180.69 3.862l-3.7 7.356h1.85l1.85 11.954 1.85-11.954h1.85l-3.7-7.356zM176.99 12.138c-2.076 1.032-3.988 2.227-5.737 3.585l-0.024-0.012c-1.085-0.539-2.598-1.291-4.539-2.256l-0.799-0.397 3.897 3.875c-1.801 1.58-3.409 3.354-4.822 5.32 2.415-1.921 5.588-3.466 9.518-4.635l-3.043-0.883h6.475l-0.925-4.598zM184.39 12.138l-0.925 4.598h6.475l-3.043 0.883c3.929 1.169 7.102 2.713 9.518 4.635-3.083-4.291-7.091-7.663-12.024-10.115zM177.915 1.103l-2.775 5.517-2.775 4.598h2.775l2.775-4.598v-5.517zM183.464 1.103v5.517l2.775 4.598h2.775l-2.775-4.598-2.775-5.517z"></path>
</svg>
