<!-- Generated by IcoMoon.io -->
<svg version="1.1" xmlns="http://www.w3.org/2000/svg" width="32" height="32" viewBox="0 0 32 32">
<title>Figma-logo</title>
<path fill="#f8f8f8" d="M0 16c0-8.837 7.163-16 16-16s16 7.163 16 16c0 8.837-7.163 16-16 16s-16-7.163-16-16z"></path>
<path fill="#ff4656" d="M12.799 25.6c1.767 0 3.2-1.433 3.2-3.2v-3.2h-3.2c-1.767 0-3.2 1.433-3.2 3.2s1.433 3.2 3.2 3.2z"></path>
<path fill="#ff4656" d="M9.599 16c0-1.767 1.433-3.2 3.2-3.2h3.2v6.4h-3.2c-1.767 0-3.2-1.433-3.2-3.2z"></path>
<path fill="#ff4656" d="M9.599 9.6c0-1.767 1.433-3.2 3.2-3.2h3.2v6.4h-3.2c-1.767 0-3.2-1.433-3.2-3.2z"></path>
<path fill="#ff4656" d="M16 6.4h3.2c1.767 0 3.2 1.433 3.2 3.2s-1.433 3.2-3.2 3.2h-3.2v-6.4z"></path>
<path fill="#ff4656" d="M22.4 16c0 1.767-1.433 3.2-3.2 3.2s-3.2-1.433-3.2-3.2c0-1.767 1.433-3.2 3.2-3.2s3.2 1.433 3.2 3.2z"></path>
</svg>
