<!-- Generated by IcoMoon.io -->
<svg version="1.1" xmlns="http://www.w3.org/2000/svg" width="32" height="32" viewBox="0 0 32 32">
<title>icon2</title>
<path d="M17.043 1.301c0-0.718-0.583-1.301-1.303-1.301s-1.303 0.582-1.303 1.301 0.583 1.301 1.303 1.301c0.72 0 1.303-0.582 1.303-1.301zM20.69 6.244c0-0.862-0.7-1.561-1.563-1.561s-1.564 0.699-1.564 1.561 0.7 1.561 1.564 1.561c0.863 0 1.563-0.699 1.563-1.561zM12.873 7.284c-0.576 0-1.042-0.466-1.042-1.041s0.467-1.041 1.042-1.041c0.576 0 1.042 0.466 1.042 1.041s-0.467 1.041-1.042 1.041zM22.601 10.586l9.295-7.464c0.347 1.041-0.156 4.267-1.824 5.724-0.777 0.679-1.491 1.29-2.119 1.829l-0.001 0.001c-0.719 0.616-1.325 1.136-1.789 1.552v1.821l4.691-3.902-0.012 0.093c-0.178 1.34-0.545 4.1-2.072 5.37-1.251 1.041-2.259 1.821-2.606 2.081v2.081l3.388-2.862c0.174 1.734-1.199 5.18-3.023 6.504-1.155 0.839-3.112 2.483-5.126 4.174-1.984 1.666-4.022 3.378-5.401 4.411-1.38-1.033-3.418-2.745-5.402-4.411-2.014-1.691-3.971-3.335-5.126-4.174-1.824-1.324-3.197-4.77-3.023-6.504l3.388 2.862v-2.081c-0.077-0.057-0.188-0.137-0.329-0.237-0.497-0.355-1.357-0.971-2.332-1.782-1.564-1.301-2.275-4.225-2.449-5.526l5.109 3.902v-1.821c-0.463-0.416-1.070-0.937-1.789-1.553-0.628-0.538-1.342-1.15-2.12-1.83-1.668-1.457-2.172-4.683-1.824-5.724l9.295 7.464c-1.048 1.383-1.669 3.107-1.669 4.975 0 4.56 3.703 8.256 8.27 8.256s8.27-3.696 8.27-8.256c0-1.868-0.621-3.591-1.669-4.975zM16 21.854c-3.454 0-6.254-2.795-6.254-6.244s2.8-6.244 6.254-6.244 6.254 2.795 6.254 6.244c0 3.448-2.8 6.244-6.254 6.244z"></path>
</svg>
