<!-- Generated by IcoMoon.io -->
<svg version="1.1" xmlns="http://www.w3.org/2000/svg" width="33" height="32" viewBox="0 0 33 32">
<title>icon1</title>
<path d="M30.558 16c0-7.434-6.251-13.46-13.962-13.46s-13.962 6.026-13.962 13.46c0 7.434 6.251 13.46 13.962 13.46s13.962-6.026 13.962-13.46zM33.193 16c0 8.837-7.43 16-16.596 16s-16.596-7.163-16.596-16c0-8.837 7.43-16 16.596-16s16.596 7.163 16.596 16zM14.489 8.127l1.054 5.079 1.317-5.079-0.79-1.27v-2.283c0.088-0.002 0.175-0.003 0.264-0.003 3.134 0 5.978 1.199 8.064 3.148l-1.215 4.217 2.368-2.967c1.489 1.88 2.374 4.229 2.374 6.777 0 1.906-0.495 3.701-1.368 5.271l-2.847-1.716v-3.302l-4.742-6.095 2.898 6.349-0.264 3.302-5.795 1.778 6.322 0.762 1.695 2.179c-2.020 1.651-4.635 2.646-7.491 2.646-2.301 0-4.445-0.646-6.248-1.761l1.506-3.319-2.898 2.286 0.027 0.046c-0.726-0.61-1.373-1.306-1.922-2.071l5.056-5.086 0.79-6.095-3.688 6.095-4.021 0.775c-0.127-0.663-0.194-1.347-0.194-2.045 0-1.484 0.3-2.9 0.844-4.195l2.316 0.893-1.378-2.656c1.21-1.848 2.967-3.33 5.051-4.235l2.913 2.574z"></path>
</svg>
