<!-- Generated by IcoMoon.io -->
<svg version="1.1" xmlns="http://www.w3.org/2000/svg" width="37" height="32" viewBox="0 0 37 32">
<title>icon3</title>
<path d="M2.666 15.926c-3.585-3.672-3.55-9.479 0.078-13.109 3.753-3.756 9.912-3.756 13.666 0l1.949 1.95 1.949-1.95c3.754-3.756 9.912-3.756 13.666 0 3.628 3.631 3.663 9.437 0.078 13.109l-15.693 16.074-15.693-16.074zM26.128 14.217c-2.164-0.105-3.998-0.929-5.503-2.471s-2.257-3.382-2.257-5.518c0 2.137-0.755 3.976-2.266 5.518s-3.347 2.366-5.511 2.471c1.425 0.063 2.732 0.461 3.921 1.192s2.129 1.7 2.82 2.905c0.691 1.205 1.036 2.513 1.036 3.924 0-2.147 0.753-3.995 2.257-5.542s3.34-2.374 5.503-2.479z"></path>
</svg>
