<!-- Generated by IcoMoon.io -->
<svg version="1.1" xmlns="http://www.w3.org/2000/svg" width="63" height="32" viewBox="0 0 63 32">
<title>riot-games</title>
<path fill="#fff" d="M59.849 28.475l-5.678-0.928v-0.742l5.492-0.185-0.093-1.391h-6.981l-0.372 3.525 5.771 1.020v0.649l-6.050 0.278-0.186 1.299h8.47l-0.372-3.525zM5.492 27.919l-0.093 1.298 2.048 0.093v1.299l-4.375-0.093 0.186-3.803 5.957-0.093-0.093-1.391h-7.726l-0.652 6.771h8.749l-0.186-4.174-3.816 0.093zM42.63 30.423v-1.206l4.095-0.093v-1.299l-4.189-0.093v-1.206l5.492-0.093v-1.391h-7.446l-0.186 6.956h7.819l-0.093-1.391-5.492-0.186zM36.673 32l-0.745-6.864h-1.955l-2.885 3.246-2.885-3.246h-1.955l-0.652 6.864h2.327l0.186-4.452 2.978 3.061 2.978-3.061 0.186 4.452h2.42zM26.806 0h-4.654l-0.372 21.241h5.585l-0.558-21.241zM45.794 0h-14.52l-0.558 21.241h16.102l-1.024-21.241zM41.327 16.603l-5.119 0.186-0.279-12.522 5.398 0.186v12.151zM63.2 4.638l-0.558-4.638h-14.334l0.186 4.081 4.561 0.186 0.465 16.974h5.678l-1.675-16.788 5.678 0.186zM13.031 21.241h6.143l-4.002-9.554 3.165-1.762-2.141-9.925h-15.637l-0.558 4.638 3.537-0.093-1.675 16.788h5.492l0.186-5.38 3.909-2.133 1.582 7.42zM7.819 4.267l4.468-0.093 0.558 4.267-5.212 2.412 0.186-6.585zM19.919 32h2.327l-1.862-6.864h-5.585l-1.862 6.864h2.327l0.372-1.762 3.816 0.093 0.465 1.67zM16.009 28.939l0.465-2.226 2.234-0.093 0.465 2.226-3.165 0.093z"></path>
</svg>
