<svg aria-hidden="true" style="position:absolute;width:0;height:0;overflow:hidden"
    xmlns="http://www.w3.org/2000/svg">
    <defs>
        <symbol id="Abilities1" viewBox="0 0 158 32">
            <path d="m21.7 0-4.391 8.672a7.396 7.396 0 0 1 2.322 5.389c0 .46-.042.911-.122 1.348l4.047 3.257-4.816-1.079a7.468 7.468 0 0 1-5.4 3.815L12.171 32l-.964-10.569a7.46 7.46 0 0 1-1.986-.542l-2.7 1.812 1.179-2.69a7.414 7.414 0 0 1-2.985-5.649l-4.716-1.829 4.998-.526A7.388 7.388 0 0 1 6.52 9.206V7.344l2.232.108a7.452 7.452 0 0 1 1.999-.69h-.074l1.146-6.08 1.129 5.986c.868.09 1.692.329 2.445.689l6.302-7.358zm-9.529 10.592c-1.923 0-3.482 1.553-3.482 3.468s1.559 3.468 3.482 3.468c1.923 0 3.482-1.553 3.482-3.468s-1.559-3.468-3.482-3.468zm38.921-8.814c-1.011 3.758-2.364 10.851 1.046 12.284 2.274.955 2.72-1.659 1.34-7.843 2.265 3.254 3.24 6.393 2.922 9.416.421.241.819.52 1.188.832.544-.328.815-.956.815-1.883.588 1.079.733 2.147.433 3.205a8.034 8.034 0 0 1 1.608 4.836c0 4.441-3.582 8.041-8 8.041s-8-3.6-8-8.041c0-1.28.297-2.49.827-3.564-.52-1.212-.382-2.879.415-5 0 1.91.359 2.369.784 2.639.12.076.262.12.428.132.24-.234.495-.451.763-.653-.42-5.539.724-10.341 3.432-14.402zm1.352 17.039c-2.093 0-3.789 1.705-3.789 3.809a3.81 3.81 0 0 0 2.472 3.573c.139-1.317.684-2.223 1.636-2.717 0 1.056-.137 2.13.581 2.845a3.806 3.806 0 0 0 2.889-3.7c0-2.104-1.696-3.809-3.789-3.809zM87.751 4.902c-2.485 2.247-3.581 5.423-3.288 9.528-.953-.391-1.86-1.508-2.72-3.353-.904 1.705-.975 8.298 7.036 13.555l-2.08 1.331c2.27.882 5.308 1.413 9.116 1.593-7.902-6.891-9.169-16.211-8.064-22.653zm17.832-.013c1.105 6.443-.162 15.762-8.064 22.653 3.807-.179 6.846-.71 9.116-1.593l-2.08-1.331c8.012-5.256 7.94-11.849 7.036-13.555-.86 1.845-1.767 2.963-2.72 3.353.293-4.105-.804-7.281-3.288-9.528zm-3.85 11.138c-.388-2.127-3.839-2.868-5.002-.16l-.064.159.001.001c-1.093-2.896-4.671-2.168-5.066 0s1.819 4.554 5.065 6.481h.001v-.001c3.247-1.927 5.461-4.313 5.065-6.481zm-5.066-6.943c-.941 0-1.704.751-1.704 1.678s.763 1.678 1.704 1.678 1.704-.751 1.704-1.678c0-.927-.763-1.678-1.704-1.678zm53.006-2.417c1.479 1.087 3.045 3.748 3.045 5.711v12.08c2.13.316 4.005.768 5.504 1.319l-.001-10.903-.001-.208c-.018-1.824-.28-2.326-1.186-3.092.176 1.286.017 2.209-.477 2.767-.148-1.783-2.61-6.997-6.884-7.675zm-16.784 4.793v14.312c1.49-.546 3.348-.994 5.458-1.309v-3.718c-1.033-.868-2.853-3.963-5.458-9.285zm13.128-4.62c-1.408 1.56-2.17 2.974-2.285 4.24-.173 1.899-.174 4.403-1.694 4.403s-1.023-4.042-1.844-5.585c-.548-1.029-1.398-1.727-2.549-2.095.944 1.06 1.728 2.428 1.728 4.405v12.116a50.12 50.12 0 0 1 5.7-.364V13.607l.006-.534c.045-2.132.358-4.209.94-6.232zm1.404 3.081c-.782.814-1.174 2.024-1.174 3.63v10.41c1.743.022 3.416.128 4.978.303v-10.33c0-1.016-.585-2.218-1.754-3.608.383 2.718.131 4.077-.755 4.077s-1.318-1.494-1.295-4.483zM134.97 8.074c.904 2.73 1.26 5.063 1.067 7.001l1.766-3.615-.028-.164c-.236-1.197-1.171-2.271-2.806-3.222z"/>
        </symbol>
        <symbol id="Abilities2" viewBox="0 0 192 32">
            <path d="m177.627 0 .133.315c1.366 3.317 2.305 8.322 2.818 15.015l.047.632-2.139 2.661v1.139c.527 0 2.139 1.104 2.139 2.805 0 1.627-1.064 2.435-1.451 2.503l-.048.005v5.636c0 .431-.436.676-1.306.736l-.193.01c-1-.036-1.499-.285-1.499-.747v-5.636c-.336 0-1.499-.806-1.499-2.507s1.612-2.805 2.139-2.805v-1.139l-2.139-2.661c.517-7.229 1.516-12.55 2.998-15.963zm-14.361 4.863.218.209c2.037 1.998 4.248 5.339 6.633 10.024l.257.507-.854 2.601.342.832c.407-.162 1.983.149 2.494 1.392s-.146 2.189-.406 2.292l1.986 4.836c.129.313-.131.624-.778.934l-.156.071c-.783.28-1.244.252-1.382-.085l-1.986-4.836c-.26.103-1.4-.129-1.911-1.371s.405-2.544.811-2.706l-.342-.832-2.452-1.287c-1.769-5.44-2.594-9.634-2.473-12.582zm28.723 0c.12 2.948-.703 7.142-2.473 12.582l-2.452 1.287-.342.832c.407.162 1.322 1.463.811 2.706s-1.651 1.474-1.911 1.371l-1.986 4.836c-.138.337-.599.365-1.382.085l-.156-.071c-.648-.31-.907-.621-.778-.934l1.986-4.836c-.26-.103-.916-1.049-.406-2.292s2.087-1.554 2.494-1.392l.342-.832-.854-2.601.256-.507c2.385-4.685 4.596-8.026 6.633-10.024l.218-.209zm-14.362 16.273c-.828 0-1.499.66-1.499 1.475s.671 1.475 1.499 1.475c.828 0 1.499-.66 1.499-1.475s-.671-1.475-1.499-1.475zm-8.019-.833c-.639.254-.96.943-.716 1.538s.961.871 1.601.617c.639-.254.96-.943.715-1.538s-.961-.871-1.601-.617zm16.039 0c-.639-.254-1.356.022-1.601.617s.076 1.283.715 1.538c.64.254 1.356-.022 1.601-.617s-.076-1.283-.716-1.538zM123.265 9.898c-.607 2.325-2.126 3.487-4.554 3.487h-14.575c.607-1.743 1.518-2.615 2.732-2.615h10.931c-1.214-1.162-2.429-1.743-3.644-1.743h-4.554c.58-1.109 1.713-1.689 3.399-1.74l.593-.008c2.61-.072 5.078-.978 4.206-3.482h4.555l12.95 11.566a.845.845 0 0 1 0 1.275l-12.95 11.566h-4.555c.911-2.615-1.822-3.487-4.554-3.487-1.739 0-2.925-.529-3.557-1.588l-.087-.155h4.554c1.143 0 2.286-.515 3.429-1.544l.214-.199h-10.931c-1.161 0-2.045-.797-2.652-2.393l-.081-.222h14.575c2.348 0 3.845 1.086 4.491 3.258l.063.229 6.377-6.102-6.377-6.102zM65.374 22.966a.9.9 0 0 0-1.121 0l-3.588 2.86a.891.891 0 0 0-.336.698v4.934l4.485-3.576 4.485 3.576v-4.934a.894.894 0 0 0-.336-.698l-3.588-2.86zm.039-10.635a.9.9 0 0 0-1.2 0l-8.073 7.24a.892.892 0 0 0-.297.664V25.2l8.37-7.507a.9.9 0 0 1 1.2 0l8.37 7.507v-4.965a.888.888 0 0 0-.297-.664l-8.073-7.24zM65.448.804a.899.899 0 0 0-1.268 0L53.678 11.269c-.336.335-.525.79-.525 1.264v6.41l3.588-2.682V13.95c0-.237.095-.464.263-.632l7.176-7.151a.899.899 0 0 1 1.268 0l7.176 7.151a.894.894 0 0 1 .263.632v2.311l3.588 2.682v-6.41c0-.474-.189-.929-.526-1.264L65.448.804zM13.298 0c0 1.355.016 2.397-.638 3.643l.087-.001c7.039 0 12.746 5.76 12.746 12.866 0 4.261-2.052 8.038-5.213 10.379-1.034 1.004-3.402 2.709-7.107 5.114.233-1.014.108-1.89-.374-2.628l-.052.001c-7.039 0-12.746-5.76-12.746-12.866 0-4.978 2.801-9.296 6.899-11.435 3.324-2.322 5.457-4.013 6.398-5.072zm-.552 9.19c-4.022 0-7.283 3.291-7.283 7.352 0 .765.116 1.502.33 2.196 2.18 1.566 6.419.636 6.831-4.033.96 3.751.29 7.505-4.336 7.652a7.207 7.207 0 0 0 4.458 1.538c4.022 0 7.283-3.292 7.283-7.352s-3.261-7.352-7.283-7.352z"/>
        </symbol>
        <symbol id="Abilities3" viewBox="0 0 196 32">
            <path d="m0 13.177 8.414 16.941 1.87-3.765L15.893 32l-5.609-13.177-1.87 3.765L0 13.176zm33.655 0-8.414 9.412-1.87-3.765L17.762 32l5.609-5.647 1.87 3.765 8.414-16.941zM16.828 0l-.07.415c-1.257 7.264-3.415 11.205-6.474 11.821l6.544 13.176 6.544-13.176c-3.116-.627-5.298-4.706-6.544-12.235zm68.674 9.931c3.36 0 6.084 2.708 6.084 6.05s-2.724 6.049-6.084 6.049c-3.014 0-5.517-2.18-5.999-5.04l-1.098-.001v.591c0 .267-.106.524-.297.713l-4.056 4.033a1.018 1.018 0 0 1-1.434 0l-4.056-4.033a1.007 1.007 0 0 1-.297-.713v-.591l-2.113.001c-.483 2.861-2.985 5.04-5.999 5.04-3.36 0-6.084-2.708-6.084-6.05s2.724-6.05 6.084-6.05c3.015 0 5.517 2.18 6 5.041h2.112v-3.952a1.015 1.015 0 0 1 1.647-.787l2.789 2.219c.37.295.897.295 1.267 0l2.789-2.219a1.017 1.017 0 0 1 1.425.158c.144.179.222.401.222.63v3.952h1.098c.483-2.861 2.985-5.041 6-5.041zm-25.349 3.025c-1.68 0-3.042 1.354-3.042 3.025s1.362 3.025 3.042 3.025a3.04 3.04 0 0 0 2.868-2.016l-2.868-.001c-.56 0-1.014-.451-1.014-1.008s.454-1.008 1.014-1.008h2.869a3.042 3.042 0 0 0-2.869-2.017zm25.349 0a3.042 3.042 0 0 0-2.869 2.017h2.869c.56 0 1.014.452 1.014 1.008s-.454 1.008-1.014 1.008l-2.868.001a3.043 3.043 0 0 0 2.868 2.016c1.68 0 3.042-1.354 3.042-3.025s-1.362-3.025-3.042-3.025zm56.843 14.285h-27.586v3.655h27.586v-3.655zM126.99 5.404c-6.374.766-11.311 6.16-11.311 12.7 0 2.718.853 5.239 2.308 7.311h3.624a9.993 9.993 0 0 1-3.173-7.311c0-4.393 2.836-8.128 6.788-9.495l1.765-3.204zm3.125 0 1.766 3.205c3.951 1.368 6.786 5.102 6.786 9.495a9.993 9.993 0 0 1-3.173 7.311h3.624a12.678 12.678 0 0 0 2.308-7.311c0-6.54-4.938-11.933-11.31-12.7zm-1.563-3.749C119.41 1.655 112 9.019 112 18.103c0 2.626.62 5.108 1.721 7.311h2.087a14.486 14.486 0 0 1-1.969-7.311c0-8.075 6.587-14.621 14.713-14.621s14.713 6.546 14.713 14.621c0 2.663-.717 5.16-1.969 7.311h2.087a16.303 16.303 0 0 0 1.721-7.311c0-9.084-7.41-16.448-16.552-16.448zm0 3.655-5.517 10.966c1.839-.609 3.065-.609 3.678 0s1.226 3.046 1.839 7.31c.613-4.264 1.226-6.701 1.839-7.31s1.839-.609 3.678 0L128.552 5.31zm42.822 16.023-1.321.776c2.642 4.892 5.726 5.781 8.369 6.226l.881 3.113v-4.447c-2.936 0-5.579-1.889-7.928-5.668zm18.631 0c-2.349 3.778-4.991 5.668-7.928 5.668v4.447l.881-3.113c2.643-.445 5.726-1.334 8.369-6.226l-1.321-.776zM180.69 3.862l-3.7 7.356h1.85l1.85 11.954 1.85-11.954h1.85l-3.7-7.356zm-3.7 8.276a33.999 33.999 0 0 0-5.737 3.585l-.024-.012-4.539-2.256-.799-.397 3.897 3.875a31.535 31.535 0 0 0-4.822 5.32c2.415-1.921 5.588-3.466 9.518-4.635l-3.043-.883h6.475l-.925-4.598zm7.4 0-.925 4.598h6.475l-3.043.883c3.929 1.169 7.102 2.713 9.518 4.635-3.083-4.291-7.091-7.663-12.024-10.115zm-6.475-11.035L175.14 6.62l-2.775 4.598h2.775l2.775-4.598V1.103zm5.549 0V6.62l2.775 4.598h2.775l-2.775-4.598-2.775-5.517z"/>
        </symbol>
        <symbol id="Abilities4" viewBox="0 0 216 32">
            <path d="M89.916 25.906h2.926l1.301-.991 1.625 1.651 3.251-1.651v-4.293l-4.877-5.283 3.576 1.981h1.301v-3.962l-2.601-2.642 2.601-1.981V5.433l-2.601.66-2.276 1.651-1.301-1.651h-2.926v19.811zm-22.107.33h3.251v-1.651l3.251 1.651h2.276V6.095h-8.778v20.141zm11.053 0h2.276l.975-1.651 1.301 1.651h4.226V6.095h-3.251l-.976 4.623-1.301-4.623h-3.251v20.141zM56.755 6.425h8.778v19.811h-2.276l-1.3-1.651-1.301 1.651h-3.902v-1.981c1.561-1.056.65-2.421 0-2.972V10.717l4.877 1.651-4.877-5.943zm85.873-5.124a1.302 1.302 0 1 0-2.604.002 1.302 1.302 0 0 0 2.604-.002zm3.648 4.943c0-.862-.7-1.561-1.564-1.561s-1.564.699-1.564 1.561.7 1.561 1.564 1.561 1.564-.699 1.564-1.561zm-7.819 1.04a1.042 1.042 0 1 1 0-2.084 1.042 1.042 0 0 1 0 2.084zm9.728 3.302 9.296-7.464c.347 1.041-.156 4.267-1.824 5.724-.778.679-1.491 1.29-2.119 1.829l-.001.001c-.719.616-1.326 1.136-1.789 1.552v1.821l4.691-3.902-.013.093c-.178 1.34-.545 4.1-2.072 5.37a74.476 74.476 0 0 1-2.606 2.081v2.081l3.388-2.862c.173 1.734-1.2 5.18-3.024 6.504-1.155.839-3.112 2.483-5.126 4.174-1.983 1.666-4.022 3.378-5.401 4.411-1.38-1.033-3.418-2.745-5.401-4.411-2.014-1.691-3.971-3.335-5.126-4.174-1.824-1.324-3.197-4.77-3.024-6.504l3.388 2.862v-2.081a26.176 26.176 0 0 0-.328-.237c-.496-.355-1.357-.97-2.332-1.782-1.564-1.301-2.275-4.225-2.449-5.526l5.109 3.902v-1.821c-.463-.416-1.071-.937-1.789-1.553-.628-.538-1.342-1.15-2.12-1.83-1.668-1.457-2.171-4.683-1.824-5.724l9.295 7.464a8.21 8.21 0 0 0-1.669 4.975c0 4.56 3.702 8.256 8.27 8.256s8.27-3.697 8.27-8.256a8.211 8.211 0 0 0-1.669-4.975zm-6.6 11.268c-3.454 0-6.255-2.795-6.255-6.244s2.8-6.244 6.255-6.244c3.454 0 6.254 2.795 6.254 6.244s-2.8 6.244-6.254 6.244zm44.846-5.616a8.154 8.154 0 0 1 .066-11.378c3.21-3.26 8.476-3.26 11.685 0l1.666 1.693 1.666-1.693c3.21-3.26 8.476-3.26 11.685 0a8.153 8.153 0 0 1 .066 11.378l-13.418 13.951-13.418-13.951zm20.061-1.483c-1.85-.091-3.419-.806-4.705-2.145s-1.93-2.935-1.93-4.79c0 1.855-.646 3.451-1.938 4.79s-2.863 2.053-4.712 2.145c1.218.055 2.335.4 3.352 1.035s1.82 1.475 2.411 2.522a6.816 6.816 0 0 1 .886 3.405c0-1.864.643-3.467 1.93-4.81s2.855-2.06 4.705-2.152zM27.793 16.302c0-6.733-5.685-12.19-12.698-12.19S2.397 9.57 2.397 16.302c0 6.733 5.685 12.191 12.698 12.191s12.698-5.458 12.698-12.191zm2.396 0c0 8.003-6.758 14.491-15.094 14.491S.001 24.305.001 16.302 6.759 1.811 15.095 1.811s15.094 6.488 15.094 14.491zm-17.011-7.13.958 4.6 1.198-4.6-.719-1.15V5.955l.24-.003c2.851 0 5.437 1.086 7.334 2.851l-1.105 3.819 2.153-2.688a9.817 9.817 0 0 1 2.159 6.138c0 1.726-.45 3.352-1.244 4.774l-2.59-1.554v-2.99l-4.313-5.52 2.636 5.75-.24 2.99-5.271 1.61 5.75.69 1.542 1.973a10.763 10.763 0 0 1-6.813 2.397c-2.093 0-4.043-.585-5.683-1.595l1.37-3.006-2.635 2.07.025.042a10.32 10.32 0 0 1-1.748-1.876l4.598-4.607.719-5.52-3.354 5.52-3.657.702a9.756 9.756 0 0 1-.176-1.852c0-1.344.273-2.626.768-3.799l2.107.809-1.253-2.406a10.473 10.473 0 0 1 4.594-3.836l2.649 2.331z"/>
        </symbol>
        <symbol id="akali" viewBox="0 0 32 32">
            <path d="M0-1.6h33.6V32H0V-1.6z"/>
        </symbol>
        <symbol id="Figma-logo" viewBox="0 0 32 32">
            <path d="M0 16C0 7.163 7.163 0 16 0s16 7.163 16 16-7.163 16-16 16S0 24.837 0 16z"/>
            <path d="M12.799 25.6a3.2 3.2 0 0 0 3.2-3.2v-3.2h-3.2a3.2 3.2 0 0 0 0 6.4zm-3.2-9.6a3.2 3.2 0 0 1 3.2-3.2h3.2v6.4h-3.2a3.2 3.2 0 0 1-3.2-3.2zm0-6.4a3.2 3.2 0 0 1 3.2-3.2h3.2v6.4h-3.2a3.2 3.2 0 0 1-3.2-3.2zM16 6.4h3.2a3.2 3.2 0 0 1 0 6.4H16V6.4z"/>
            <path d="M22.4 16a3.2 3.2 0 1 1-6.4 0 3.2 3.2 0 0 1 6.4 0z"/>
        </symbol>
        <symbol id="icon1" viewBox="0 0 33 32">
            <path d="M30.558 16c0-7.434-6.251-13.46-13.962-13.46S2.634 8.566 2.634 16c0 7.434 6.251 13.46 13.962 13.46S30.558 23.434 30.558 16zm2.635 0c0 8.837-7.43 16-16.596 16S.001 24.837.001 16 7.431 0 16.597 0s16.596 7.163 16.596 16zM14.489 8.127l1.054 5.079 1.317-5.079-.79-1.27V4.574c.088-.002.175-.003.264-.003 3.134 0 5.978 1.199 8.064 3.148l-1.215 4.217 2.368-2.967a10.873 10.873 0 0 1 2.374 6.777c0 1.906-.495 3.701-1.368 5.271l-2.847-1.716v-3.302l-4.742-6.095 2.898 6.349-.264 3.302-5.795 1.778 6.322.762 1.695 2.179a11.803 11.803 0 0 1-7.491 2.646c-2.301 0-4.445-.646-6.248-1.761l1.506-3.319-2.898 2.286.027.046a11.36 11.36 0 0 1-1.922-2.071l5.056-5.086.79-6.095-3.688 6.095-4.021.775a10.865 10.865 0 0 1 .65-6.24l2.316.893-1.378-2.656a11.518 11.518 0 0 1 5.051-4.235l2.913 2.574z"/>
        </symbol>
        <symbol id="icon2" viewBox="0 0 32 32">
            <path d="M17.043 1.301a1.302 1.302 0 1 0-2.604.002 1.302 1.302 0 0 0 2.604-.002zm3.647 4.943a1.563 1.563 0 0 0-3.127 0c0 .862.7 1.561 1.564 1.561.863 0 1.563-.699 1.563-1.561zm-7.817 1.04a1.041 1.041 0 1 1-.002-2.082 1.041 1.041 0 0 1 .002 2.082zm9.728 3.302 9.295-7.464c.347 1.041-.156 4.267-1.824 5.724-.777.679-1.491 1.29-2.119 1.829l-.001.001c-.719.616-1.325 1.136-1.789 1.552v1.821l4.691-3.902-.012.093c-.178 1.34-.545 4.1-2.072 5.37a74.476 74.476 0 0 1-2.606 2.081v2.081l3.388-2.862c.174 1.734-1.199 5.18-3.023 6.504-1.155.839-3.112 2.483-5.126 4.174-1.984 1.666-4.022 3.378-5.401 4.411-1.38-1.033-3.418-2.745-5.402-4.411-2.014-1.691-3.971-3.335-5.126-4.174-1.824-1.324-3.197-4.77-3.023-6.504l3.388 2.862v-2.081a21.323 21.323 0 0 0-.329-.237 38.718 38.718 0 0 1-2.332-1.782C1.614 14.371.903 11.447.729 10.146l5.109 3.902v-1.821c-.463-.416-1.07-.937-1.789-1.553-.628-.538-1.342-1.15-2.12-1.83C.261 7.387-.243 4.161.105 3.12L9.4 10.584a8.21 8.21 0 0 0-1.669 4.975c0 4.56 3.703 8.256 8.27 8.256s8.27-3.696 8.27-8.256a8.211 8.211 0 0 0-1.669-4.975zM16 21.854c-3.454 0-6.254-2.795-6.254-6.244s2.8-6.244 6.254-6.244 6.254 2.795 6.254 6.244A6.25 6.25 0 0 1 16 21.854z"/>
        </symbol>
        <symbol id="icon3" viewBox="0 0 37 32">
            <path d="M2.666 15.926a9.294 9.294 0 0 1 .078-13.109c3.753-3.756 9.912-3.756 13.666 0l1.949 1.95 1.949-1.95c3.754-3.756 9.912-3.756 13.666 0a9.294 9.294 0 0 1 .078 13.109L18.359 32 2.666 15.926zm23.462-1.709c-2.164-.105-3.998-.929-5.503-2.471s-2.257-3.382-2.257-5.518c0 2.137-.755 3.976-2.266 5.518s-3.347 2.366-5.511 2.471c1.425.063 2.732.461 3.921 1.192s2.129 1.7 2.82 2.905a7.753 7.753 0 0 1 1.036 3.924c0-2.147.753-3.995 2.257-5.542s3.34-2.374 5.503-2.479z"/>
        </symbol>
        <symbol id="logo" viewBox="0 0 38 32">
            <path fill="#fff" style="fill:var(--color3, #fff)" d="M0 15.868V0l25.556 32H12.778L0 15.868zm34.119 5.421H21.604L38.4 0v15.868l-4.281 5.422z"/>
        </symbol>
        <symbol id="Polygon" viewBox="0 0 24 32">
            <path d="M23.579 16 .842.685v30.63L23.579 16z"/>
        </symbol>
        <symbol id="riot-games" viewBox="0 0 63 32">
            <path fill="#fff" style="fill:var(--color3, #fff)" d="m59.849 28.475-5.678-.928v-.742l5.492-.185-.093-1.391h-6.981l-.372 3.525 5.771 1.02v.649l-6.05.278L51.752 32h8.47l-.372-3.525zm-54.357-.556-.093 1.298 2.048.093v1.299l-4.375-.093.186-3.803 5.957-.093-.093-1.391H1.396L.744 32h8.749l-.186-4.174-3.816.093zm37.138 2.504v-1.206l4.095-.093v-1.299l-4.189-.093v-1.206l5.492-.093v-1.391h-7.446l-.186 6.956h7.819l-.093-1.391-5.492-.186zM36.673 32l-.745-6.864h-1.955l-2.885 3.246-2.885-3.246h-1.955L25.596 32h2.327l.186-4.452 2.978 3.061 2.978-3.061.186 4.452h2.42zM26.806 0h-4.654l-.372 21.241h5.585L26.807 0zm18.988 0h-14.52l-.558 21.241h16.102L45.794 0zm-4.467 16.603-5.119.186-.279-12.522 5.398.186v12.151zM63.2 4.638 62.642 0H48.308l.186 4.081 4.561.186.465 16.974h5.678L57.523 4.453l5.678.186zM13.031 21.241h6.143l-4.002-9.554 3.165-1.762L16.196 0H.559L.001 4.638l3.537-.093-1.675 16.788h5.492l.186-5.38 3.909-2.133 1.582 7.42zM7.819 4.267l4.468-.093.558 4.267-5.212 2.412.186-6.585zM19.919 32h2.327l-1.862-6.864h-5.585L12.937 32h2.327l.372-1.762 3.816.093.465 1.67zm-3.91-3.061.465-2.226 2.234-.093.465 2.226-3.165.093z"/>
        </symbol>
    </defs>
</svg>